<svg width="28" height="33" viewBox="0 0 28 33" fill="none" xmlns="http://www.w3.org/2000/svg">
<path d="M22.8424 17.4948C22.8014 13.4761 26.232 11.5484 26.3845 11.4532C24.4568 8.72437 21.4545 8.35154 20.3848 8.3087C17.8303 8.05803 15.3989 9.76356 14.1012 9.76356C12.8084 9.76356 10.8068 8.34519 8.68712 8.38327C5.90462 8.42293 3.33704 9.9476 1.90313 12.3591C-0.990931 17.2139 1.16157 24.4089 3.9818 28.3467C5.35993 30.2743 7.00383 32.4399 9.16126 32.3606C11.2383 32.2813 12.0241 31.0612 14.5359 31.0612C17.0477 31.0612 17.7549 32.3622 19.9533 32.3225C22.1895 32.2813 23.6053 30.3568 24.9736 28.4244C26.5568 26.1874 27.2081 24.0218 27.2475 23.9107C27.1983 23.8901 22.8867 22.2924 22.8441 17.4932L22.8424 17.4948ZM18.7113 5.70202C19.8565 4.35822 20.6292 2.49404 20.4176 0.634617C18.7688 0.698078 16.7688 1.6976 15.5859 3.03822C14.5245 4.22813 13.5942 6.12404 13.8436 7.94697C15.6844 8.08659 17.5645 7.04264 18.7113 5.70202V5.70202Z" fill="#A8A9BA"/>
</svg>
