<svg width="90" height="47" viewBox="0 0 90 47" fill="none" xmlns="http://www.w3.org/2000/svg"><path d="M0.528751 14.9513H4.97026V8.0669H5.39326L7.50826 14.9513H11.1038L13.2188 8.0669H13.6418V14.9513H18.0833V0.348081H11.6325L9.51752 7.23244H9.09451L6.97951 0.348081H0.528751V14.9513Z" fill="#fff"/><path d="M24.9661 15.1599C29.0904 15.1599 32.2629 12.0515 32.2629 7.64967C32.2629 3.24785 29.0904 0.139465 24.9661 0.139465C20.8419 0.139465 17.6694 3.24785 17.6694 7.64967C17.6694 12.0515 20.8419 15.1599 24.9661 15.1599ZM24.9661 10.8832C23.3799 10.8832 22.1109 9.63153 22.1109 7.64967C22.1109 5.66781 23.3799 4.41611 24.9661 4.41611C26.5524 4.41611 27.8214 5.66781 27.8214 7.64967C27.8214 9.63153 26.5524 10.8832 24.9661 10.8832Z" fill="#fff"/><path d="M31.0996 9.94445C31.0996 13.0737 33.3204 15.2642 37.5504 15.2642C41.6958 15.2642 43.7897 13.1989 43.7897 10.466C43.7897 7.85829 42.5207 6.60659 39.5597 6.08504L37.2331 5.66781C36.1545 5.48005 35.8584 5.14627 35.8584 4.72903C35.8584 4.3118 36.2602 3.89457 37.4446 3.89457C38.629 3.89457 39.2424 4.52042 39.2424 5.35489H43.6839C43.6839 2.24649 41.4632 0.0351562 37.3389 0.0351562C33.5319 0.0351562 31.4169 2.12132 31.4169 4.72903C31.4169 7.33674 32.6859 8.58844 35.5411 9.10999L37.8676 9.52722C39.052 9.7567 39.3481 10.0488 39.3481 10.466C39.3481 10.9875 38.9251 11.4048 37.5504 11.4048C36.1756 11.4048 35.5411 10.7789 35.5411 9.94445H31.0996Z" fill="#fff"/><path d="M52.557 8.90137C52.2398 10.0696 51.3938 10.8832 50.019 10.8832C48.4328 10.8832 47.1637 9.63153 47.1637 7.64967C47.1637 5.66781 48.4328 4.41611 50.019 4.41611C51.3938 4.41611 52.2398 5.22971 52.557 6.29366H56.9985C56.4909 2.72631 53.8049 0.139465 50.019 0.139465C45.8947 0.139465 42.7222 3.24785 42.7222 7.64967C42.7222 12.0515 45.8947 15.1599 50.019 15.1599C53.8049 15.1599 56.4909 12.5522 56.9985 8.90137H52.557Z" fill="#fff"/><path d="M63.351 15.1599C67.4752 15.1599 70.6477 12.0515 70.6477 7.64967C70.6477 3.24785 67.4752 0.139465 63.351 0.139465C59.2267 0.139465 56.0542 3.24785 56.0542 7.64967C56.0542 12.0515 59.2267 15.1599 63.351 15.1599ZM63.351 10.8832C61.7647 10.8832 60.4957 9.63153 60.4957 7.64967C60.4957 5.66781 61.7647 4.41611 63.351 4.41611C64.9372 4.41611 66.2062 5.66781 66.2062 7.64967C66.2062 9.63153 64.9372 10.8832 63.351 10.8832Z" fill="#fff"/><path d="M72.657 14.9513H77.6272L79.3192 8.17121H79.7422L81.4342 14.9513H86.4045L90 0.348081H85.2412L83.7607 6.8152H83.3377L81.7515 0.348081H77.31L75.7237 6.8152H75.3007L73.8202 0.348081H69.0615L72.657 14.9513Z" fill="#fff"/><path d="M9.83477 24.339C9.51752 25.5073 8.67151 26.3209 7.29676 26.3209C5.71051 26.3209 4.44151 25.0692 4.44151 23.0873C4.44151 21.1055 5.71051 19.8538 7.29676 19.8538C8.67151 19.8538 9.51752 20.6674 9.83477 21.7313H14.2763C13.7687 18.164 11.0826 15.5771 7.29676 15.5771C3.17251 15.5771 0 18.6855 0 23.0873C0 27.4891 3.17251 30.5975 7.29676 30.5975C11.0826 30.5975 13.7687 27.9898 14.2763 24.339H9.83477Z" fill="#fff"/><path d="M13.8607 30.3889H18.3022V15.7857H13.8607V30.3889Z" fill="#fff"/><path d="M21.3756 30.3889H25.8171V20.0624H29.5183V15.7857H17.6743V20.0624H21.3756V30.3889Z" fill="#fff"/><path d="M32.5768 30.3889H37.0183V26.0079L42.3059 15.7857H37.4413L35.0091 20.7925H34.5861L32.1538 15.7857H27.2893L32.5768 26.0079V30.3889Z" fill="#fff"/><path d="M0.528751 45.8265H4.97026V40.7154H8.98876V45.8265H13.4303V31.2234H8.98876V36.2302H4.97026V31.2234H0.528751V45.8265Z" fill="#fff"/><path d="M12.1555 45.8265H16.9142L17.5487 43.6361H22.4133L23.0478 45.8265H27.8065L23.0478 31.2234H16.9142L12.1555 45.8265ZM18.6062 39.881L19.7695 35.9172H20.1925L21.3558 39.881H18.6062Z" fill="#fff"/><path d="M35.4247 39.7767C35.1074 40.9449 34.2614 41.7585 32.8867 41.7585C31.3004 41.7585 30.0314 40.5068 30.0314 38.525C30.0314 36.5431 31.3004 35.2914 32.8867 35.2914C34.2614 35.2914 35.1074 36.105 35.4247 37.1689H39.8662C39.3586 33.6016 36.6725 31.0147 32.8867 31.0147C28.7624 31.0147 25.5899 34.1231 25.5899 38.525C25.5899 42.9268 28.7624 46.0352 32.8867 46.0352C36.6725 46.0352 39.3586 43.4274 39.8662 39.7767H35.4247Z" fill="#fff"/><path d="M39.4506 45.8265H43.8921V39.568L47.4876 45.8265H52.5636L48.1221 38.4206L52.1406 31.2234H47.0646L43.8921 37.1689V31.2234H39.4506V45.8265Z" fill="#fff"/></svg>