<svg width="209" height="50" viewBox="0 0 209 50" fill="none" xmlns="http://www.w3.org/2000/svg">
<path d="M88.8259 16.6304V5.54346H90.985L94.1115 12.6532H94.784L97.9106 5.54346H100.07V16.6304H98.7286V7.1285V6.96958H98.701L95.661 13.9371H93.203L90.1827 6.96958H90.1512V7.1285V16.6304H88.8259Z" fill="#333333"/>
<path d="M103.6 15.5736C103.181 15.211 102.851 14.7779 102.631 14.3008C102.411 13.8236 102.305 13.3125 102.32 12.7985C102.317 12.2846 102.431 11.7754 102.655 11.2998C102.879 10.8243 103.208 10.3918 103.624 10.0269C104.04 9.66212 104.534 9.37215 105.079 9.17358C105.623 8.97502 106.208 8.87174 106.798 8.86966C107.389 8.86758 107.974 8.96673 108.521 9.16145C109.067 9.35617 109.564 9.64264 109.983 10.0045C110.403 10.3664 110.736 10.7966 110.964 11.2705C111.192 11.7445 111.311 12.2529 111.313 12.7667C111.291 13.5332 111.014 14.2775 110.515 14.9096C110.016 15.5417 109.318 16.0344 108.504 16.3281C107.69 16.6218 106.796 16.7038 105.93 16.5643C105.063 16.4247 104.262 16.0696 103.623 15.5419L103.6 15.5736ZM104.58 10.7845C104.289 11.0476 104.062 11.3583 103.911 11.6987C103.76 12.039 103.688 12.4021 103.7 12.7667C103.69 13.1312 103.762 13.4939 103.913 13.834C104.064 14.1741 104.29 14.485 104.58 14.749C105.179 15.2475 105.976 15.5256 106.805 15.5256C107.634 15.5256 108.431 15.2475 109.031 14.749C109.322 14.4862 109.549 14.1755 109.7 13.8351C109.851 13.4947 109.923 13.1315 109.91 12.7667C109.924 12.4023 109.853 12.0391 109.703 11.6986C109.553 11.3582 109.326 11.0474 109.035 10.7845C108.44 10.2796 107.641 9.99702 106.81 9.99702C105.978 9.99702 105.18 10.2796 104.584 10.7845H104.58Z" fill="#333333"/>
<path d="M113.579 15.539C113.199 15.1691 112.902 14.7308 112.706 14.2504C112.511 13.7701 112.42 13.2576 112.441 12.7436C112.426 12.2343 112.519 11.7273 112.716 11.2526C112.913 10.7779 113.209 10.3451 113.587 9.97976C113.982 9.61069 114.453 9.32192 114.972 9.1314C115.49 8.94087 116.045 8.85268 116.601 8.87231C117.158 8.89194 117.704 9.01897 118.206 9.24549C118.708 9.47201 119.155 9.79318 119.519 10.189C119.845 10.5744 120.089 11.0155 120.237 11.488H118.977C118.852 11.2109 118.674 10.9578 118.452 10.7418C118.189 10.4911 117.874 10.2948 117.526 10.1656C117.178 10.0364 116.805 9.97715 116.431 9.99161C116.068 9.98439 115.707 10.0512 115.373 10.1875C115.04 10.3239 114.741 10.5264 114.499 10.7813C113.972 11.313 113.685 12.0168 113.701 12.7436C113.678 13.475 113.965 14.185 114.499 14.7178C114.74 14.9682 115.034 15.168 115.363 15.3041C115.691 15.4402 116.047 15.5095 116.406 15.5075C116.799 15.5257 117.191 15.4614 117.555 15.3194C117.918 15.1773 118.243 14.961 118.506 14.6862C118.743 14.449 118.927 14.1698 119.048 13.8649H120.308C120.091 14.674 119.586 15.389 118.877 15.8916C118.168 16.3942 117.298 16.6543 116.41 16.6288C115.884 16.6426 115.36 16.5528 114.872 16.3651C114.384 16.1775 113.944 15.8961 113.579 15.539Z" fill="#333333"/>
<path d="M121.433 16.6264V8.86963H122.817V11.974H124.565L127.361 8.86963H129.04L125.811 12.5146L129.303 16.61H127.555L124.579 13.1412H122.831V16.6305L121.433 16.6264Z" fill="#333333"/>
<path d="M130.424 15.557C130.057 15.2005 129.769 14.7747 129.576 14.3058C129.384 13.8368 129.292 13.3346 129.305 12.8297C129.289 12.3156 129.378 11.8036 129.568 11.3239C129.758 10.8442 130.045 10.4067 130.412 10.0373C130.779 9.66787 131.218 9.37416 131.704 9.17357C132.189 8.97299 132.711 8.86963 133.239 8.86963C133.766 8.86963 134.288 8.97299 134.774 9.17357C135.259 9.37416 135.699 9.66787 136.065 10.0373C136.432 10.4067 136.719 10.8442 136.91 11.3239C137.1 11.8036 137.189 12.3156 137.172 12.8297C137.153 13.5837 136.91 14.3161 136.473 14.9381C136.035 15.5601 135.422 16.0449 134.708 16.3336C133.993 16.6224 133.208 16.7027 132.448 16.5649C131.687 16.427 130.984 16.0769 130.424 15.557ZM131.287 10.8504C131.032 11.1084 130.832 11.4137 130.699 11.7483C130.567 12.0829 130.505 12.44 130.516 12.7985C130.505 13.1569 130.568 13.5139 130.7 13.8484C130.832 14.1829 131.032 14.4883 131.287 14.7466C131.813 15.2365 132.512 15.5099 133.239 15.5099C133.966 15.5099 134.665 15.2365 135.19 14.7466C135.444 14.4872 135.642 14.1816 135.775 13.8474C135.907 13.5131 135.971 13.1567 135.962 12.7985C135.972 12.4401 135.909 12.0833 135.777 11.7488C135.645 11.4143 135.445 11.1089 135.19 10.8504C134.668 10.3542 133.968 10.0765 133.239 10.0765C132.51 10.0765 131.809 10.3542 131.287 10.8504Z" fill="#333333"/>
<path d="M139.423 16.6294V8.87337H143.404C144.05 8.83975 144.687 9.03354 145.193 9.41802C145.403 9.59037 145.57 9.80508 145.682 10.0466C145.794 10.2881 145.848 10.5504 145.841 10.8144C145.843 11.0534 145.806 11.2912 145.73 11.5188C145.67 11.6992 145.575 11.8672 145.451 12.0143C145.35 12.1276 145.233 12.2269 145.103 12.3091C145.008 12.3734 144.904 12.4257 144.794 12.4648C144.739 12.4842 144.681 12.4966 144.623 12.5016C144.689 12.5071 144.754 12.5209 144.816 12.5426C144.95 12.5828 145.078 12.6392 145.198 12.7105C145.359 12.8022 145.509 12.9092 145.648 13.0299C145.808 13.1836 145.932 13.3678 146.013 13.5704C146.118 13.8231 146.171 14.093 146.167 14.3649C146.181 14.6721 146.123 14.9786 145.998 15.2619C145.873 15.5452 145.683 15.7983 145.442 16.0029C144.875 16.4456 144.153 16.6679 143.421 16.6253L139.423 16.6294ZM140.71 12.0552H143.31C144.121 12.0552 144.528 11.7194 144.528 11.0438C144.528 10.3681 144.121 10.0364 143.31 10.0364H140.71V12.0552ZM140.71 15.4664H143.391C143.782 15.4913 144.169 15.3808 144.481 15.1552C144.606 15.0487 144.704 14.917 144.769 14.7696C144.833 14.6222 144.862 14.463 144.854 14.3034C144.863 14.1433 144.834 13.9833 144.769 13.8352C144.705 13.6871 144.606 13.5547 144.481 13.4476C144.168 13.2234 143.781 13.1144 143.391 13.1404H140.71V15.4664Z" fill="#333333"/>
<path d="M148.435 15.4974C148.059 15.1322 147.764 14.6999 147.569 14.226C147.373 13.7521 147.28 13.2461 147.295 12.7379C147.28 12.2296 147.372 11.7235 147.568 11.2495C147.764 10.7755 148.059 10.3433 148.435 9.97831C148.829 9.60972 149.299 9.32132 149.817 9.13105C150.335 8.94079 150.888 8.85271 151.443 8.87231C151.999 8.8919 152.544 9.01875 153.045 9.24496C153.546 9.47118 153.992 9.79192 154.356 10.1873C154.681 10.5713 154.923 11.012 155.068 11.4842H153.811C153.688 11.2068 153.51 10.954 153.287 10.7392C153.026 10.4885 152.711 10.2922 152.364 10.1632C152.017 10.0342 151.645 9.97522 151.272 9.99014C150.909 9.98294 150.549 10.0497 150.216 10.1858C149.883 10.3219 149.586 10.5241 149.344 10.7786C148.827 11.3176 148.552 12.0241 148.577 12.7497C148.554 13.4794 148.839 14.1882 149.369 14.7208C149.61 14.9707 149.903 15.17 150.231 15.3059C150.559 15.4418 150.913 15.511 151.272 15.5093C151.664 15.5277 152.055 15.4637 152.418 15.3219C152.78 15.18 153.104 14.9639 153.367 14.6893C153.606 14.4545 153.79 14.1752 153.907 13.8693H155.164C155.027 14.3748 154.779 14.8476 154.435 15.257C154.057 15.7001 153.575 16.0546 153.027 16.2927C152.479 16.5308 151.879 16.6458 151.276 16.6289C150.744 16.6393 150.216 16.544 149.727 16.349C149.237 16.154 148.797 15.8638 148.435 15.4974Z" fill="#333333"/>
<path d="M156.289 16.6264V8.86963H157.676V11.974H159.424L162.226 8.86963H163.891L160.654 12.5146L164.159 16.61H162.407L159.438 13.1412H157.69V16.6305L156.289 16.6264Z" fill="#333333"/>
<path d="M165.284 16.6305V8.86963H166.498V14.6882V14.8439H166.526L170.65 8.86963H172.03V16.6305H170.816V10.8119V10.6562H170.783L166.664 16.6305H165.284Z" fill="#333333"/>
<path d="M174.279 16.6304V8.70937H175.493V14.6481V14.807H175.522L179.644 8.70937H181.025V16.6304H179.81V10.6917V10.5328H179.778L175.655 16.6304H174.279ZM175.38 5.54346H176.518C176.514 5.67365 176.538 5.80318 176.588 5.92257C176.639 6.04196 176.714 6.1482 176.809 6.23352C177.057 6.42277 177.361 6.51472 177.668 6.49281C177.98 6.51959 178.292 6.42736 178.543 6.23352C178.637 6.1478 178.712 6.04139 178.762 5.92201C178.812 5.80264 178.835 5.67332 178.83 5.54346L179.98 5.54346C179.986 5.81453 179.932 6.08341 179.823 6.33024C179.715 6.57707 179.554 6.79556 179.353 6.96958C178.875 7.36179 178.273 7.55832 177.664 7.52163C177.056 7.55728 176.456 7.3608 175.979 6.96958C175.783 6.79255 175.628 6.57278 175.524 6.32614C175.421 6.07951 175.371 5.81217 175.38 5.54346V5.54346Z" fill="#333333"/>
<path d="M88.8259 29.9347V22.1738H90.0414V27.9955V28.1513H90.0738L94.1945 22.1738H95.5721V29.9347H94.3566V24.113V23.9572H94.3282L90.2075 29.9347H88.8259Z" fill="#333333"/>
<path d="M97.8209 29.9347V22.1738H99.0393V25.3553H103.349V22.1738H104.567V29.9347H103.349V26.5196H99.0515V29.9347H97.8209Z" fill="#333333"/>
<path d="M106.816 29.9347V22.1738H108.035V25.3553H112.343V22.1738H113.562V29.9347H112.343V26.5196H108.035V29.9347H106.816Z" fill="#333333"/>
<path d="M116.932 28.8612C116.565 28.5043 116.277 28.0785 116.085 27.6096C115.893 27.1408 115.8 26.6387 115.813 26.1339C115.796 25.6198 115.885 25.1078 116.076 24.6281C116.266 24.1484 116.553 23.7109 116.92 23.3415C117.286 22.9721 117.726 22.6784 118.211 22.4778C118.697 22.2772 119.219 22.1738 119.746 22.1738C120.274 22.1738 120.796 22.2772 121.281 22.4778C121.767 22.6784 122.206 22.9721 122.573 23.3415C122.94 23.7109 123.227 24.1484 123.417 24.6281C123.607 25.1078 123.696 25.6198 123.68 26.1339C123.661 26.8879 123.418 27.6203 122.98 28.2423C122.543 28.8643 121.93 29.349 121.215 29.6378C120.501 29.9266 119.716 30.0069 118.955 29.8691C118.195 29.7312 117.492 29.3811 116.932 28.8612ZM117.795 24.1546C117.539 24.4123 117.339 24.7176 117.206 25.0523C117.074 25.3869 117.012 25.7441 117.023 26.1027C117.012 26.4612 117.074 26.8183 117.206 27.153C117.339 27.4876 117.539 27.7929 117.795 28.0508C118.317 28.547 119.017 28.8247 119.746 28.8247C120.475 28.8247 121.176 28.547 121.698 28.0508C121.954 27.7929 122.154 27.4876 122.286 27.153C122.418 26.8183 122.481 26.4612 122.469 26.1027C122.481 25.7441 122.419 25.3869 122.286 25.0523C122.154 24.7176 121.954 24.4123 121.698 24.1546C121.176 23.6584 120.475 23.3807 119.746 23.3807C119.017 23.3807 118.317 23.6584 117.795 24.1546Z" fill="#333333"/>
<path d="M125.93 29.9347V22.1781H129.92C130.568 22.1421 131.207 22.3347 131.715 22.719C131.926 22.891 132.094 23.1058 132.206 23.3476C132.319 23.5893 132.373 23.8519 132.365 24.1162C132.367 24.3553 132.33 24.5933 132.253 24.821C132.152 25.1487 131.928 25.4299 131.625 25.6118C131.529 25.6761 131.425 25.7284 131.315 25.7675C131.26 25.7897 131.202 25.8036 131.143 25.8085C131.21 25.8143 131.276 25.8266 131.341 25.8454C131.476 25.8864 131.604 25.9442 131.724 26.0175C131.878 26.1084 132.022 26.2141 132.154 26.333C132.315 26.488 132.44 26.6737 132.52 26.8779C132.626 27.1292 132.679 27.398 132.675 27.6688C132.688 27.9757 132.63 28.2817 132.505 28.565C132.38 28.8482 132.191 29.1018 131.952 29.3078C131.38 29.7489 130.655 29.9697 129.92 29.9265L125.93 29.9347ZM127.222 25.3578H129.826C130.643 25.3578 131.048 25.0218 131.048 24.3498C131.048 23.6778 130.656 23.3541 129.838 23.3541H127.234L127.222 25.3578ZM127.222 28.771H129.907C130.299 28.7978 130.688 28.687 131.001 28.4596C131.119 28.3483 131.213 28.2156 131.278 28.0693C131.342 27.923 131.375 27.7659 131.375 27.6073C131.375 27.4487 131.342 27.2917 131.278 27.1453C131.213 26.999 131.119 26.8663 131.001 26.755C130.688 26.5276 130.299 26.4168 129.907 26.4436H127.222V28.771Z" fill="#333333"/>
<path d="M134.91 28.8294C134.17 28.0802 133.773 27.0852 133.803 26.0601C133.772 25.0349 134.17 24.0398 134.91 23.2908C135.249 22.9341 135.664 22.65 136.128 22.4576C136.592 22.2652 137.095 22.1689 137.601 22.1752C138.182 22.1592 138.757 22.2831 139.273 22.5352C139.667 22.7232 140.01 22.9939 140.276 23.3264L140.418 23.548V22.3058H141.672V29.7947H140.418V28.5841L140.276 28.7938C140.018 29.1196 139.683 29.3838 139.298 29.5652C138.771 29.8238 138.182 29.9505 137.589 29.9331C137.085 29.9392 136.586 29.8439 136.124 29.6537C135.662 29.4634 135.249 29.1824 134.91 28.8294ZM135.85 24.0583C135.334 24.5986 135.059 25.308 135.086 26.0364C135.06 26.7647 135.334 27.4739 135.85 28.0144C136.099 28.2606 136.398 28.4565 136.728 28.5904C137.059 28.7243 137.415 28.7933 137.775 28.7933C138.135 28.7933 138.49 28.7243 138.821 28.5904C139.152 28.4565 139.451 28.2606 139.699 28.0144C140.216 27.4739 140.49 26.7647 140.464 26.0364C140.49 25.308 140.216 24.5986 139.699 24.0583C139.451 23.8121 139.152 23.6162 138.821 23.4823C138.49 23.3485 138.135 23.2794 137.775 23.2794C137.415 23.2794 137.059 23.3485 136.728 23.4823C136.398 23.6162 136.099 23.8121 135.85 24.0583Z" fill="#333333"/>
<path d="M143.92 30.2876V22.1738H145.197V29.0703H149.387V22.1738H150.664V29.0703H151.791V32.1521H150.515V30.2876H143.92Z" fill="#333333"/>
<path d="M152.915 29.9347V22.1738H154.129V27.9955V28.1513H154.158L158.282 22.1738H159.662V29.9347H158.448V24.113V23.9572H158.419L154.295 29.9347H152.915Z" fill="#333333"/>
<path d="M163.031 28.8612C162.665 28.5043 162.377 28.0785 162.184 27.6096C161.992 27.1408 161.9 26.6387 161.912 26.1339C161.896 25.6198 161.985 25.1078 162.175 24.6281C162.365 24.1484 162.652 23.7109 163.019 23.3415C163.386 22.9721 163.825 22.6784 164.311 22.4778C164.796 22.2772 165.318 22.1738 165.846 22.1738C166.373 22.1738 166.895 22.2772 167.381 22.4778C167.866 22.6784 168.305 22.9721 168.672 23.3415C169.039 23.7109 169.326 24.1484 169.516 24.6281C169.707 25.1078 169.796 25.6198 169.779 26.1339C169.76 26.8879 169.517 27.6203 169.08 28.2423C168.642 28.8643 168.029 29.349 167.315 29.6378C166.6 29.9266 165.815 30.0069 165.055 29.8691C164.294 29.7312 163.591 29.3811 163.031 28.8612ZM163.894 24.1546C163.638 24.4123 163.438 24.7176 163.306 25.0523C163.173 25.3869 163.111 25.7441 163.123 26.1027C163.111 26.4612 163.174 26.8183 163.306 27.153C163.438 27.4876 163.638 27.7929 163.894 28.0508C164.416 28.547 165.117 28.8247 165.846 28.8247C166.575 28.8247 167.275 28.547 167.797 28.0508C168.053 27.7929 168.253 27.4876 168.385 27.153C168.518 26.8183 168.58 26.4612 168.568 26.1027C168.58 25.7441 168.518 25.3869 168.386 25.0523C168.253 24.7176 168.053 24.4123 167.797 24.1546C167.275 23.6584 166.575 23.3807 165.846 23.3807C165.117 23.3807 164.416 23.6584 163.894 24.1546Z" fill="#333333"/>
<path d="M172.03 29.9347V22.1738H173.248V25.3553H177.558V22.1738H178.776V29.9347H177.558V26.5196H173.26V29.9347H172.03Z" fill="#333333"/>
<path d="M181.025 29.9347V22.1738H182.244V25.3553H186.552V22.1738H187.771V29.9347H186.552V26.5196H182.244V29.9347H181.025Z" fill="#333333"/>
<path d="M190.02 29.932V22.1738H191.356V24.8091H193.377C194.222 24.7767 195.047 25.0404 195.689 25.5468C195.97 25.7749 196.195 26.0555 196.35 26.3699C196.504 26.6844 196.584 27.0255 196.584 27.3706C196.584 27.7156 196.504 28.0567 196.35 28.3712C196.195 28.6857 195.97 28.9663 195.689 29.1943C195.047 29.7007 194.222 29.9644 193.377 29.932H190.02ZM191.356 28.7681H193.377C193.87 28.7972 194.356 28.6586 194.745 28.3788C194.899 28.2519 195.022 28.0965 195.106 27.9228C195.191 27.7491 195.234 27.5609 195.234 27.3706C195.234 27.1802 195.191 26.9921 195.106 26.8183C195.022 26.6446 194.899 26.4892 194.745 26.3624C194.358 26.0772 193.872 25.9315 193.377 25.9525H191.356V28.7681ZM197.679 29.932V22.1738H199.015V29.932H197.679Z" fill="#333333"/>
<path d="M201.264 29.9349V22.018H202.478V27.9567V28.1156H202.506L206.63 22.018H208.01V29.9349H206.796V23.9962V23.8372H206.763L202.64 29.9349H201.264ZM202.368 18.8479H203.518C203.513 18.9782 203.537 19.1079 203.587 19.2274C203.638 19.3469 203.713 19.453 203.809 19.538C204.064 19.71 204.362 19.8016 204.667 19.8016C204.972 19.8016 205.27 19.71 205.525 19.538C205.621 19.453 205.697 19.3469 205.747 19.2274C205.798 19.1079 205.821 18.9782 205.816 18.8479H206.966C206.976 19.1208 206.926 19.3926 206.819 19.6425C206.712 19.8925 206.552 20.1141 206.351 20.2908C205.858 20.6524 205.269 20.8467 204.665 20.8467C204.061 20.8467 203.472 20.6524 202.98 20.2908C202.779 20.1135 202.62 19.8916 202.514 19.6418C202.408 19.3919 202.358 19.1205 202.368 18.8479Z" fill="#333333"/>
<path d="M88.8259 43.2391V35.4783H90.0157V38.5843H91.5188L93.9223 35.4783H95.3461L92.5698 39.1251L95.5721 43.2227H94.0809L91.5268 39.7316H90.0236V43.2227L88.8259 43.2391Z" fill="#333333"/>
<path d="M95.5721 43.2391L97.8149 35.4783H101.2L103.443 43.2391H102.063L100.218 36.642H98.7754L96.9347 43.2391H95.5721Z" fill="#333333"/>
<path d="M105.667 42.1235C104.958 41.3577 104.567 40.3753 104.567 39.3584C104.567 38.3415 104.958 37.3591 105.667 36.5933C106.006 36.2372 106.421 35.9536 106.886 35.7614C107.35 35.5693 107.852 35.4731 108.36 35.4793C108.941 35.4654 109.517 35.589 110.034 35.8388C110.426 36.0302 110.769 36.2998 111.039 36.6288L111.182 36.854V35.6097H112.438V43.0913H111.182V41.9063L111.039 42.1156C110.785 42.4338 110.457 42.6932 110.08 42.8741C109.551 43.1301 108.962 43.2552 108.368 43.2375C107.859 43.2448 107.355 43.1492 106.889 42.957C106.423 42.7649 106.007 42.4806 105.667 42.1235ZM106.593 37.3596C106.098 37.9181 105.827 38.6227 105.827 39.3505C105.827 40.0783 106.098 40.7829 106.593 41.3414C106.842 41.5861 107.141 41.7808 107.472 41.9138C107.803 42.0467 108.159 42.1153 108.519 42.1153C108.878 42.1153 109.234 42.0467 109.565 41.9138C109.896 41.7808 110.195 41.5861 110.445 41.3414C110.942 40.7843 111.216 40.0791 111.216 39.3505C111.216 38.6219 110.942 37.9167 110.445 37.3596C110.196 37.1139 109.897 36.9184 109.566 36.7847C109.235 36.6511 108.879 36.5822 108.519 36.5822C108.159 36.5822 107.802 36.6511 107.471 36.7847C107.14 36.9184 106.841 37.1139 106.593 37.3596Z" fill="#333333"/>
<path d="M115.835 42.1311C115.096 41.3734 114.687 40.3844 114.687 39.3584C114.687 38.3323 115.096 37.3433 115.835 36.5856C116.23 36.2175 116.701 35.9294 117.22 35.7394C117.739 35.5493 118.294 35.4614 118.851 35.4809C119.408 35.5005 119.955 35.6272 120.457 35.8532C120.959 36.0792 121.407 36.3995 121.771 36.7944C122.099 37.1778 122.344 37.6182 122.49 38.0902H121.229C121.102 37.8071 120.92 37.5492 120.691 37.33C120.428 37.08 120.112 36.8842 119.764 36.7553C119.416 36.6264 119.042 36.5673 118.668 36.5817C118.304 36.5745 117.943 36.6412 117.609 36.7772C117.275 36.9131 116.977 37.1152 116.734 37.3694C116.213 37.9064 115.935 38.6129 115.961 39.3387C115.938 40.0683 116.226 40.7765 116.76 41.3079C117.001 41.5578 117.295 41.7571 117.624 41.8928C117.953 42.0286 118.309 42.0977 118.668 42.0957C119.062 42.1138 119.454 42.0497 119.818 41.908C120.182 41.7663 120.507 41.5506 120.77 41.2764C121.001 41.0474 121.18 40.7767 121.296 40.4809H122.557C122.42 40.9859 122.171 41.4582 121.826 41.8672C121.448 42.3083 120.966 42.6615 120.419 42.8993C119.871 43.1371 119.272 43.2529 118.668 43.2378C118.14 43.2491 117.614 43.1564 117.126 42.9658C116.638 42.7752 116.198 42.4908 115.835 42.1311Z" fill="#333333"/>
<path d="M122.557 36.642V35.4783H129.303V36.642H126.558V43.2391H125.315V36.642H122.557Z" fill="#333333"/>
<path d="M131.552 42.1312C130.829 41.377 130.428 40.3868 130.428 39.3587C130.428 38.3306 130.829 37.3404 131.552 36.5861C131.916 36.2244 132.353 35.9393 132.837 35.7489C133.32 35.5584 133.839 35.4667 134.36 35.4794C134.882 35.4681 135.4 35.5592 135.885 35.7474C136.369 35.9355 136.808 36.2167 137.176 36.574C137.544 36.9312 137.833 37.357 138.026 37.8256C138.219 38.2941 138.311 38.7956 138.297 39.2996V39.7328H131.667C131.729 40.3897 132.043 41.0005 132.547 41.4459C133.039 41.8901 133.691 42.1305 134.364 42.1155C135.081 42.1324 135.778 41.8941 136.325 41.4459C136.562 41.2607 136.762 41.0335 136.912 40.7764H138.134C137.848 41.5153 137.331 42.1495 136.655 42.5908C135.978 43.032 135.176 43.2582 134.36 43.2379C133.839 43.2509 133.32 43.1592 132.836 42.9688C132.353 42.7783 131.916 42.4931 131.552 42.1312ZM131.691 38.6891H136.989C136.904 38.1126 136.605 37.5853 136.149 37.2044C135.657 36.794 135.023 36.5775 134.373 36.5979C133.719 36.5802 133.082 36.7962 132.583 37.2044C132.111 37.5795 131.794 38.1066 131.691 38.6891Z" fill="#333333"/>
<path d="M140.547 46.5652V35.6514H141.8V36.9044L141.959 36.6663C142.214 36.3293 142.544 36.0562 142.923 35.8686C143.45 35.5944 144.038 35.4607 144.631 35.4801C145.138 35.4738 145.64 35.5756 146.103 35.7787C146.567 35.9818 146.982 36.2816 147.321 36.658C148.028 37.4677 148.418 38.5065 148.418 39.5817C148.418 40.6569 148.028 41.6957 147.321 42.5054C146.766 43.0893 146.04 43.4811 145.248 43.6238C144.456 43.7666 143.638 43.6528 142.915 43.299C142.531 43.1149 142.202 42.8342 141.959 42.4845L141.8 42.2632V46.5652H140.547ZM142.581 37.5017C142.085 38.0907 141.812 38.8364 141.812 39.6068C141.812 40.3772 142.085 41.1228 142.581 41.7118C142.83 41.9706 143.128 42.1764 143.458 42.317C143.788 42.4576 144.143 42.5301 144.502 42.5301C144.861 42.5301 145.216 42.4576 145.546 42.317C145.876 42.1764 146.174 41.9706 146.423 41.7118C146.919 41.1228 147.192 40.3772 147.192 39.6068C147.192 38.8364 146.919 38.0907 146.423 37.5017C146.175 37.2419 145.877 37.0351 145.547 36.8938C145.217 36.7525 144.861 36.6797 144.502 36.6797C144.143 36.6797 143.787 36.7525 143.457 36.8938C143.127 37.0351 142.829 37.2419 142.581 37.5017Z" fill="#333333"/>
<path d="M78.0762 0.0161133H59.4163V48.2547H78.0762V0.0161133Z" fill="#333333"/>
<path d="M48.3686 0.0161133H29.7086V43.9164H48.3686V0.0161133Z" fill="#333333"/>
<path d="M0 49.0299V30.1424C7.88253 30.1324 15.4389 26.9523 21.0092 21.3006C26.5795 15.6489 29.7083 7.98774 29.7082 0L48.3682 0C48.3584 12.9977 43.2598 25.4604 34.1916 34.6526C25.1234 43.8449 12.8265 49.0156 0 49.0299Z" fill="url(#paint0_linear)"/>
<path d="M29.7086 49.0299V30.1424C37.5921 30.1339 45.1498 26.9544 50.7212 21.3025C56.2927 15.6506 59.4222 7.98867 59.4222 0L78.0821 0C78.0709 12.9982 72.9711 25.4608 63.9021 34.653C54.833 43.8451 42.5356 49.0156 29.7086 49.0299Z" fill="url(#paint1_linear)"/>
<defs>
<linearGradient id="paint0_linear" x1="5.83223" y1="44.0402" x2="47.8616" y2="1.71437" gradientUnits="userSpaceOnUse">
<stop stop-color="#00EF12"/>
<stop offset="1" stop-color="#00FFE9"/>
</linearGradient>
<linearGradient id="paint1_linear" x1="1940.95" y1="5382.5" x2="5769.41" y2="1527.88" gradientUnits="userSpaceOnUse">
<stop stop-color="#00EF12"/>
<stop offset="1" stop-color="#00FFE9"/>
</linearGradient>
</defs>
</svg>
