<svg width="222" height="47" viewBox="0 0 222 47" fill="none" xmlns="http://www.w3.org/2000/svg">
<path d="M87.7503 12.8703V0H90.3438L94.0995 8.25328H94.9073L98.663 0H101.257V12.8703H99.6456V1.84V1.65551H99.6125L95.9608 9.74373H93.0082L89.3801 1.65551H89.3423V1.84V12.8703H87.7503Z" fill="white"/>
<path d="M104.909 11.6906C104.474 11.2466 104.132 10.7162 103.904 10.1319C103.676 9.54762 103.566 8.92162 103.581 8.29217C103.579 7.66291 103.697 7.03931 103.929 6.45697C104.161 5.87463 104.502 5.34496 104.933 4.8982C105.365 4.45144 105.877 4.09634 106.442 3.85318C107.007 3.61001 107.613 3.48355 108.225 3.481C108.837 3.47845 109.444 3.59986 110.011 3.83832C110.577 4.07677 111.093 4.42759 111.527 4.87074C111.962 5.31389 112.308 5.8407 112.544 6.42109C112.781 7.00147 112.904 7.62407 112.906 8.25333C112.883 9.1919 112.596 10.1034 112.079 10.8775C111.562 11.6515 110.837 12.2549 109.993 12.6146C109.15 12.9742 108.222 13.0747 107.324 12.9038C106.426 12.7329 105.595 12.298 104.932 11.6517L104.909 11.6906ZM105.924 5.8259C105.623 6.14804 105.387 6.5286 105.231 6.94537C105.074 7.36214 105 7.80678 105.012 8.25333C105.002 8.69966 105.077 9.14377 105.233 9.56028C105.39 9.97679 105.625 10.3575 105.924 10.6808C106.546 11.2912 107.372 11.6319 108.232 11.6319C109.092 11.6319 109.918 11.2912 110.54 10.6808C110.841 10.3589 111.077 9.97844 111.234 9.5616C111.39 9.14475 111.464 8.69996 111.451 8.25333C111.466 7.80698 111.393 7.36224 111.237 6.94534C111.081 6.52843 110.846 6.1478 110.544 5.8259C109.927 5.20758 109.099 4.86156 108.237 4.86156C107.374 4.86156 106.546 5.20758 105.929 5.8259H105.924Z" fill="white"/>
<path d="M115.604 11.6904C115.176 11.2355 114.843 10.6966 114.623 10.1059C114.403 9.51532 114.301 8.88515 114.324 8.25317C114.307 7.6269 114.412 7.00351 114.634 6.41982C114.855 5.83613 115.188 5.30397 115.613 4.85476C116.057 4.40096 116.587 4.04588 117.17 3.81161C117.753 3.57735 118.377 3.46891 119.003 3.49305C119.629 3.51718 120.243 3.67337 120.807 3.9519C121.372 4.23043 121.874 4.62534 122.284 5.11207C122.651 5.58588 122.925 6.12829 123.092 6.70932H121.674C121.534 6.36851 121.334 6.05738 121.084 5.79175C120.789 5.4835 120.434 5.24218 120.043 5.08331C119.651 4.92444 119.232 4.85155 118.812 4.86932C118.403 4.86045 117.997 4.94264 117.622 5.11024C117.246 5.27785 116.911 5.5269 116.638 5.8403C116.045 6.49406 115.723 7.35954 115.741 8.25317C115.716 9.15252 116.038 10.0255 116.638 10.6806C116.909 10.9885 117.24 11.2342 117.61 11.4015C117.979 11.5689 118.379 11.6541 118.783 11.6516C119.225 11.674 119.666 11.595 120.075 11.4203C120.484 11.2457 120.849 10.9797 121.145 10.6418C121.412 10.3501 121.619 10.0068 121.755 9.63195H123.172C122.927 10.6268 122.359 11.506 121.562 12.1239C120.765 12.7419 119.786 13.0617 118.788 13.0304C118.196 13.0473 117.606 12.9369 117.058 12.7062C116.51 12.4754 116.014 12.1294 115.604 11.6904Z" fill="white"/>
<path d="M124.958 12.8704V3.67529H126.375V7.35529H128.165L131.028 3.67529H132.748L129.441 7.99613L133.017 12.851H131.226L128.179 8.73892H126.389V12.8753L124.958 12.8704Z" fill="white"/>
<path d="M134.779 11.6907C134.345 11.2465 134.004 10.716 133.776 10.1317C133.549 9.54732 133.44 8.92144 133.456 8.29231C133.436 7.65182 133.542 7.01376 133.766 6.41604C133.991 5.81832 134.331 5.27312 134.765 4.81284C135.198 4.35256 135.718 3.98658 136.292 3.73664C136.866 3.4867 137.483 3.35791 138.107 3.35791C138.73 3.35791 139.348 3.4867 139.922 3.73664C140.496 3.98658 141.015 4.35256 141.449 4.81284C141.883 5.27312 142.222 5.81832 142.447 6.41604C142.672 7.01376 142.778 7.65182 142.758 8.29231C142.735 9.23183 142.448 10.1445 141.931 10.9195C141.414 11.6945 140.689 12.2986 139.844 12.6584C138.999 13.0182 138.071 13.1183 137.172 12.9466C136.272 12.7748 135.441 12.3385 134.779 11.6907ZM135.799 5.82603C135.497 6.14754 135.261 6.52798 135.104 6.94491C134.948 7.36183 134.874 7.80678 134.887 8.25347C134.874 8.70009 134.948 9.14488 135.105 9.56173C135.261 9.97858 135.498 10.3591 135.799 10.6809C136.421 11.2913 137.247 11.632 138.107 11.632C138.967 11.632 139.793 11.2913 140.415 10.6809C140.714 10.3577 140.949 9.97692 141.105 9.56041C141.262 9.1439 141.337 8.6998 141.326 8.25347C141.339 7.80691 141.265 7.36227 141.108 6.9455C140.951 6.52873 140.716 6.14817 140.415 5.82603C139.797 5.20772 138.969 4.86169 138.107 4.86169C137.245 4.86169 136.417 5.20772 135.799 5.82603Z" fill="white"/>
<path d="M144.723 12.8702V3.67509H149.107C149.819 3.63523 150.52 3.86498 151.077 4.32079C151.308 4.52512 151.492 4.77967 151.615 5.066C151.739 5.35232 151.799 5.66326 151.791 5.9763C151.793 6.25959 151.752 6.54147 151.668 6.81134C151.602 7.02517 151.498 7.22444 151.361 7.39878C151.25 7.53312 151.121 7.65078 150.978 7.74833C150.873 7.8245 150.759 7.8865 150.638 7.93281C150.577 7.95586 150.514 7.97055 150.449 7.97651C150.522 7.98304 150.593 7.99936 150.662 8.02506C150.809 8.07273 150.951 8.13962 151.082 8.22411C151.259 8.33284 151.426 8.45971 151.578 8.60278C151.754 8.78498 151.891 9.00336 151.98 9.24363C152.096 9.54314 152.153 9.86312 152.15 10.1855C152.165 10.5498 152.102 10.913 151.963 11.2489C151.825 11.5848 151.616 11.8849 151.351 12.1274C150.726 12.6523 149.932 12.9158 149.126 12.8654L144.723 12.8702ZM146.141 7.44733H149.003C149.896 7.44733 150.345 7.04923 150.345 6.24817C150.345 5.44712 149.896 5.05387 149.003 5.05387H146.141V7.44733ZM146.141 11.4914H149.093C149.523 11.5209 149.949 11.3899 150.293 11.1225C150.43 10.9962 150.539 10.84 150.61 10.6653C150.681 10.4906 150.713 10.3018 150.704 10.1126C150.713 9.92274 150.681 9.73309 150.61 9.55754C150.539 9.382 150.431 9.22499 150.293 9.09798C149.949 8.83227 149.523 8.703 149.093 8.73387H146.141V11.4914Z" fill="white"/>
<path d="M154.866 11.6905C154.442 11.2407 154.11 10.7083 153.889 10.1247C153.669 9.54108 153.564 8.91798 153.581 8.29208C153.563 7.66612 153.668 7.04286 153.888 6.45915C154.109 5.87544 154.441 5.34312 154.866 4.89367C155.31 4.43974 155.84 4.08458 156.424 3.85027C157.008 3.61595 157.632 3.50749 158.258 3.53162C158.884 3.55575 159.498 3.71196 160.063 3.99055C160.628 4.26913 161.131 4.66412 161.541 5.15098C161.908 5.62389 162.181 6.16669 162.344 6.74823H160.927C160.788 6.40661 160.588 6.0952 160.336 5.83066C160.042 5.52193 159.687 5.28028 159.296 5.12137C158.904 4.96247 158.485 4.88985 158.064 4.90823C157.655 4.89936 157.249 4.98155 156.874 5.14915C156.499 5.31676 156.164 5.56581 155.891 5.87921C155.308 6.54301 154.998 7.41305 155.026 8.30664C155 9.20531 155.321 10.0782 155.919 10.7341C156.19 11.0418 156.521 11.2873 156.891 11.4546C157.26 11.6219 157.66 11.7072 158.064 11.7051C158.506 11.7278 158.947 11.649 159.356 11.4743C159.765 11.2996 160.13 11.0335 160.426 10.6952C160.696 10.4061 160.903 10.0621 161.035 9.68543H162.453C162.298 10.308 162.018 10.8902 161.631 11.3943C161.205 11.94 160.661 12.3767 160.043 12.6698C159.425 12.963 158.749 13.1047 158.069 13.0838C157.469 13.0967 156.874 12.9793 156.322 12.7391C155.77 12.499 155.274 12.1416 154.866 11.6905Z" fill="white"/>
<path d="M164.224 12.8704V3.67529H165.642V7.35529H167.427L170.29 3.67529H171.991L168.684 7.99613L172.265 12.851H170.474L167.441 8.73892H165.656V12.8753L164.224 12.8704Z" fill="white"/>
<path d="M173.611 12.8704V3.67529H175.028V10.5692V10.7537H175.061L179.875 3.67529H181.486V12.8704H180.069V5.9765V5.79202H180.031L175.222 12.8704H173.611Z" fill="white"/>
<path d="M183.99 12.8703V3.67514H185.407V10.5691V10.7535H185.44L190.25 3.67514H191.86V12.8703H190.443V5.97635V5.79186H190.405L185.596 12.8703H183.99ZM185.275 0H186.603C186.598 0.151132 186.626 0.301495 186.684 0.440092C186.743 0.578689 186.831 0.702016 186.943 0.801054C187.231 1.02075 187.586 1.12749 187.944 1.10206C188.309 1.13314 188.672 1.02608 188.965 0.801054C189.075 0.701553 189.162 0.578019 189.22 0.439447C189.278 0.300874 189.306 0.150749 189.3 0L190.642 0C190.648 0.314679 190.585 0.626802 190.459 0.913336C190.332 1.19987 190.144 1.4535 189.909 1.65551C189.352 2.1108 188.65 2.33895 187.939 2.29635C187.23 2.33774 186.531 2.10966 185.974 1.65551C185.746 1.45001 185.564 1.19488 185.443 0.908578C185.323 0.622273 185.265 0.311937 185.275 0V0Z" fill="white"/>
<path d="M87.7503 28.1873V18.9971H89.1675V25.891V26.0755H89.2053L94.0098 18.9971H95.616V28.1873H94.1987V21.2934V21.1089H94.1657L89.3612 28.1873H87.7503Z" fill="white"/>
<path d="M98.1246 28.1873V18.9971H99.5418V22.7644H104.554V18.9971H105.971V28.1873H104.554V24.1432H99.556V28.1873H98.1246Z" fill="white"/>
<path d="M108.503 28.1873V18.9971H109.921V22.7644H114.928V18.9971H116.346V28.1873H114.928V24.1432H109.921V28.1873H108.503Z" fill="white"/>
<path d="M119.662 27.0125C119.228 26.5678 118.888 26.0372 118.66 25.453C118.433 24.8687 118.324 24.2431 118.339 23.6141C118.319 22.9736 118.424 22.3355 118.649 21.7378C118.874 21.1401 119.213 20.5949 119.647 20.1346C120.081 19.6743 120.601 19.3084 121.175 19.0584C121.749 18.8085 122.366 18.6797 122.99 18.6797C123.613 18.6797 124.23 18.8085 124.805 19.0584C125.379 19.3084 125.898 19.6743 126.332 20.1346C126.766 20.5949 127.105 21.1401 127.33 21.7378C127.555 22.3355 127.66 22.9736 127.641 23.6141C127.618 24.5536 127.331 25.4663 126.814 26.2413C126.296 27.0163 125.571 27.6204 124.727 27.9802C123.882 28.34 122.953 28.4401 122.054 28.2683C121.155 28.0966 120.324 27.6603 119.662 27.0125ZM120.682 21.1478C120.379 21.469 120.143 21.8494 119.986 22.2664C119.83 22.6834 119.756 23.1285 119.77 23.5752C119.756 24.022 119.83 24.467 119.987 24.884C120.143 25.3009 120.38 25.6813 120.682 26.0027C121.299 26.621 122.127 26.967 122.99 26.967C123.852 26.967 124.68 26.621 125.297 26.0027C125.6 25.6813 125.836 25.3009 125.993 24.884C126.149 24.467 126.223 24.022 126.209 23.5752C126.223 23.1285 126.15 22.6834 125.993 22.2664C125.836 21.8494 125.6 21.469 125.297 21.1478C124.68 20.5295 123.852 20.1835 122.99 20.1835C122.127 20.1835 121.299 20.5295 120.682 21.1478Z" fill="white"/>
<path d="M129.61 28.1875V18.9972H133.99C134.701 18.9546 135.402 19.1828 135.96 19.6381C136.191 19.842 136.375 20.0964 136.499 20.3829C136.622 20.6693 136.682 20.9805 136.673 21.2936C136.676 21.5769 136.634 21.8588 136.55 22.1286C136.439 22.5169 136.194 22.8501 135.86 23.0656C135.755 23.1418 135.641 23.2038 135.52 23.2501C135.46 23.2764 135.396 23.2928 135.331 23.2987C135.405 23.3055 135.478 23.3201 135.549 23.3423C135.697 23.3909 135.838 23.4595 135.969 23.5462C136.139 23.654 136.297 23.7793 136.441 23.9201C136.618 24.1038 136.755 24.3238 136.843 24.5658C136.959 24.8635 137.017 25.1819 137.013 25.5028C137.028 25.8665 136.964 26.229 136.827 26.5646C136.69 26.9002 136.482 27.2007 136.219 27.4447C135.592 27.9673 134.796 28.2289 133.99 28.1778L129.61 28.1875ZM131.028 22.7646H133.886C134.783 22.7646 135.227 22.3665 135.227 21.5703C135.227 20.7741 134.797 20.3906 133.9 20.3906H131.042L131.028 22.7646ZM131.028 26.8087H133.975C134.406 26.8404 134.833 26.7092 135.175 26.4398C135.306 26.3079 135.409 26.1506 135.48 25.9773C135.55 25.8039 135.587 25.6179 135.587 25.4299C135.587 25.242 135.55 25.0559 135.48 24.8826C135.409 24.7092 135.306 24.552 135.175 24.4201C134.833 24.1507 134.406 24.0194 133.975 24.0512H131.028V26.8087Z" fill="white"/>
<path d="M139.716 27.0028C138.88 26.0834 138.43 24.8623 138.464 23.6044C138.429 22.3463 138.879 21.1251 139.716 20.206C140.099 19.7682 140.568 19.4196 141.093 19.1835C141.618 18.9474 142.185 18.8292 142.758 18.8369C143.414 18.8172 144.064 18.9693 144.648 19.2787C145.093 19.5094 145.48 19.8415 145.782 20.2497L145.942 20.5215V18.9971H147.359V28.1874H145.942V26.7018L145.782 26.9591C145.49 27.3589 145.111 27.6831 144.676 27.9058C144.08 28.2232 143.415 28.3786 142.744 28.3573C142.175 28.3648 141.61 28.2479 141.088 28.0144C140.566 27.7808 140.098 27.436 139.716 27.0028ZM140.779 21.1478C140.195 21.8108 139.885 22.6814 139.914 23.5753C139.885 24.469 140.195 25.3394 140.779 26.0027C141.06 26.3048 141.397 26.5452 141.771 26.7095C142.145 26.8738 142.548 26.9585 142.954 26.9585C143.361 26.9585 143.763 26.8738 144.137 26.7095C144.511 26.5452 144.849 26.3048 145.13 26.0027C145.713 25.3394 146.023 24.469 145.994 23.5753C146.024 22.6814 145.714 21.8108 145.13 21.1478C144.849 20.8457 144.511 20.6053 144.137 20.441C143.763 20.2767 143.361 20.192 142.954 20.192C142.548 20.192 142.145 20.2767 141.771 20.441C141.397 20.6053 141.06 20.8457 140.779 21.1478Z" fill="white"/>
<path d="M149.91 28.1873V18.9971H151.327V26.8086H155.981V18.9971H157.398V26.8086H158.65V30.2992H157.232V28.1873H149.91Z" fill="white"/>
<path d="M160.195 28.1873V18.9971H161.612V25.891V26.0755H161.645L166.459 18.9971H168.07V28.1873H166.653V21.2934V21.1089H166.619L161.806 28.1873H160.195Z" fill="white"/>
<path d="M171.358 27.0125C170.925 26.5678 170.584 26.0372 170.357 25.453C170.129 24.8687 170.02 24.2431 170.035 23.6141C170.015 22.9736 170.121 22.3355 170.346 21.7378C170.57 21.1401 170.91 20.5949 171.344 20.1346C171.777 19.6743 172.297 19.3084 172.871 19.0584C173.445 18.8085 174.062 18.6797 174.686 18.6797C175.309 18.6797 175.927 18.8085 176.501 19.0584C177.075 19.3084 177.594 19.6743 178.028 20.1346C178.462 20.5949 178.801 21.1401 179.026 21.7378C179.251 22.3355 179.357 22.9736 179.337 23.6141C179.314 24.5536 179.027 25.4663 178.51 26.2413C177.993 27.0163 177.268 27.6204 176.423 27.9802C175.578 28.34 174.65 28.4401 173.751 28.2683C172.852 28.0966 172.02 27.6603 171.358 27.0125ZM172.378 21.1478C172.076 21.469 171.839 21.8494 171.682 22.2664C171.526 22.6834 171.452 23.1285 171.466 23.5752C171.453 24.022 171.526 24.467 171.683 24.884C171.839 25.3009 172.076 25.6813 172.378 26.0027C172.996 26.621 173.824 26.967 174.686 26.967C175.548 26.967 176.376 26.621 176.994 26.0027C177.296 25.6813 177.532 25.3009 177.689 24.884C177.846 24.467 177.919 24.022 177.905 23.5752C177.919 23.1285 177.846 22.6834 177.689 22.2664C177.533 21.8494 177.296 21.469 176.994 21.1478C176.376 20.5295 175.548 20.1835 174.686 20.1835C173.824 20.1835 172.996 20.5295 172.378 21.1478Z" fill="white"/>
<path d="M181.302 28.1873V18.9971H182.719V22.7644H187.731V18.9971H189.148V28.1873H187.731V24.1432H182.733V28.1873H181.302Z" fill="white"/>
<path d="M191.681 28.1873V18.9971H193.098V22.7644H198.106V18.9971H199.523V28.1873H198.106V24.1432H193.098V28.1873H191.681Z" fill="white"/>
<path d="M202.055 28.1873V18.9971H203.472V22.1188H205.617C206.512 22.0804 207.389 22.3927 208.069 22.9926C208.367 23.2628 208.606 23.5952 208.77 23.9677C208.934 24.3402 209.018 24.7443 209.018 25.153C209.018 25.5618 208.934 25.9659 208.77 26.3384C208.606 26.7109 208.367 27.0433 208.069 27.3135C207.389 27.9134 206.512 28.2257 205.617 28.1873H202.055ZM203.472 26.8086H205.617C206.139 26.843 206.655 26.6789 207.067 26.3473C207.231 26.1971 207.361 26.013 207.451 25.8072C207.541 25.6014 207.587 25.3785 207.587 25.153C207.587 24.9276 207.541 24.7047 207.451 24.4989C207.361 24.2931 207.231 24.109 207.067 23.9587C206.657 23.621 206.142 23.4483 205.617 23.4733H203.472V26.8086ZM210.18 28.1873V18.9971H211.598V28.1873H210.18Z" fill="white"/>
<path d="M214.13 28.1874V18.9971H215.547V25.891V26.0755H215.58L220.394 18.9971H222.005V28.1874H220.588V21.2935V21.109H220.55L215.736 28.1874H214.13ZM215.42 15.3171H216.761C216.756 15.4684 216.783 15.6189 216.842 15.7577C216.901 15.8964 216.99 16.0196 217.101 16.1182C217.399 16.3179 217.747 16.4242 218.103 16.4242C218.459 16.4242 218.807 16.3179 219.104 16.1182C219.216 16.0196 219.305 15.8964 219.364 15.7577C219.423 15.6189 219.45 15.4684 219.445 15.3171H220.786C220.798 15.634 220.739 15.9494 220.615 16.2396C220.49 16.5297 220.304 16.787 220.068 16.9921C219.493 17.4118 218.806 17.6374 218.101 17.6374C217.395 17.6374 216.708 17.4118 216.133 16.9921C215.899 16.7863 215.713 16.5288 215.589 16.2387C215.466 15.9486 215.408 15.6336 215.42 15.3171Z" fill="white"/>
<path d="M87.7503 43.5093V34.3142H89.1675V37.9942H90.958L93.8208 34.3142H95.5167L92.2099 38.635L95.786 43.4899H94.0097L90.9674 39.3536H89.177V43.4899L87.7503 43.5093Z" fill="white"/>
<path d="M96.0692 43.5093L98.5729 34.3142H102.352L104.856 43.5093H103.316L101.256 35.693H99.6453L97.5903 43.5093H96.0692Z" fill="white"/>
<path d="M106.982 42.32C106.182 41.3788 105.741 40.1714 105.741 38.9216C105.741 37.6718 106.182 36.4644 106.982 35.5232C107.364 35.0856 107.833 34.737 108.357 34.5009C108.881 34.2647 109.448 34.1465 110.02 34.1541C110.676 34.137 111.325 34.2889 111.909 34.5959C112.351 34.8312 112.738 35.1625 113.043 35.5669L113.204 35.8436V34.3143H114.621V43.5095H113.204V42.053L113.043 42.3103C112.756 42.7014 112.386 43.0201 111.961 43.2425C111.365 43.5572 110.7 43.7109 110.029 43.6891C109.456 43.6981 108.887 43.5806 108.361 43.3444C107.835 43.1082 107.365 42.7589 106.982 42.32ZM108.026 36.4651C107.468 37.1514 107.162 38.0175 107.162 38.9119C107.162 39.8064 107.468 40.6724 108.026 41.3588C108.307 41.6595 108.645 41.8988 109.018 42.0622C109.392 42.2256 109.793 42.3099 110.199 42.3099C110.605 42.3099 111.007 42.2256 111.38 42.0622C111.754 41.8988 112.091 41.6595 112.372 41.3588C112.934 40.6741 113.242 39.8074 113.242 38.9119C113.242 38.0164 112.934 37.1497 112.372 36.4651C112.092 36.1631 111.755 35.9227 111.381 35.7585C111.008 35.5943 110.606 35.5096 110.199 35.5096C109.793 35.5096 109.391 35.5943 109.017 35.7585C108.644 35.9227 108.307 36.1631 108.026 36.4651Z" fill="white"/>
<path d="M117.928 42.3296C117.098 41.3956 116.638 40.1765 116.638 38.9117C116.638 37.647 117.098 36.4279 117.928 35.4939C118.372 35.0401 118.902 34.685 119.485 34.4508C120.068 34.2165 120.692 34.1081 121.317 34.1322C121.943 34.1563 122.557 34.3125 123.122 34.5911C123.686 34.8696 124.189 35.2645 124.598 35.7512C124.967 36.2239 125.242 36.7667 125.406 37.3485H123.989C123.847 36.9996 123.642 36.6816 123.384 36.4115C123.089 36.1032 122.734 35.8619 122.343 35.7031C121.952 35.5442 121.532 35.4713 121.112 35.4891C120.703 35.4802 120.297 35.5624 119.922 35.73C119.547 35.8976 119.211 36.1466 118.939 36.46C118.353 37.122 118.041 37.9929 118.07 38.8875C118.044 39.7868 118.367 40.6598 118.967 41.3149C119.238 41.6228 119.569 41.8685 119.939 42.0358C120.308 42.2032 120.708 42.2884 121.112 42.2859C121.554 42.3083 121.995 42.2293 122.404 42.0546C122.812 41.88 123.178 41.614 123.474 41.2761C123.733 40.9937 123.934 40.66 124.064 40.2954H125.482C125.327 40.9179 125.047 41.5002 124.66 42.0043C124.235 42.548 123.694 42.9834 123.079 43.2765C122.463 43.5696 121.79 43.7124 121.112 43.6938C120.518 43.7077 119.928 43.5934 119.379 43.3585C118.831 43.1235 118.336 42.773 117.928 42.3296Z" fill="white"/>
<path d="M126.134 35.693V34.3142H133.829V35.693H130.697V43.5093H129.28V35.693H126.134Z" fill="white"/>
<path d="M135.922 42.3297C135.084 41.3999 134.618 40.1793 134.618 38.9119C134.618 37.6445 135.084 36.4239 135.922 35.4941C136.343 35.0482 136.85 34.6968 137.41 34.462C137.97 34.2272 138.572 34.1141 139.177 34.1299C139.781 34.1158 140.382 34.2282 140.943 34.4601C141.505 34.6921 142.014 35.0388 142.441 35.4791C142.867 35.9195 143.203 36.4444 143.426 37.022C143.649 37.5996 143.756 38.2178 143.74 38.8391V39.3731H136.054C136.127 40.1829 136.491 40.9358 137.074 41.485C137.645 42.0325 138.401 42.3288 139.181 42.3103C140.012 42.3313 140.821 42.0375 141.454 41.485C141.729 41.2567 141.96 40.9766 142.134 40.6597H143.551C143.22 41.5704 142.621 42.3523 141.836 42.8963C141.052 43.4402 140.122 43.7191 139.177 43.694C138.572 43.71 137.97 43.597 137.41 43.3622C136.85 43.1274 136.343 42.7759 135.922 42.3297ZM136.082 38.0866H142.224C142.125 37.3758 141.779 36.7258 141.251 36.2563C140.68 35.7503 139.944 35.4835 139.191 35.5086C138.434 35.4868 137.695 35.7531 137.117 36.2563C136.569 36.7187 136.202 37.3685 136.082 38.0866Z" fill="white"/>
<path d="M145.706 47V34.3142H147.123V35.7707L147.303 35.494C147.592 35.1022 147.965 34.7848 148.394 34.5667C148.99 34.2481 149.655 34.0926 150.326 34.1152C150.899 34.1078 151.466 34.2261 151.991 34.4622C152.516 34.6983 152.985 35.0468 153.368 35.4843C154.169 36.4255 154.609 37.6329 154.609 38.8827C154.609 40.1325 154.169 41.3399 153.368 42.2811C152.741 42.9598 151.92 43.4152 151.023 43.5811C150.127 43.747 149.203 43.6147 148.385 43.2035C147.95 42.9895 147.577 42.6633 147.303 42.2568L147.123 41.9995V47H145.706ZM148.007 36.465C147.445 37.1497 147.137 38.0163 147.137 38.9118C147.137 39.8073 147.445 40.674 148.007 41.3587C148.288 41.6594 148.625 41.8987 148.999 42.0621C149.372 42.2255 149.774 42.3098 150.18 42.3098C150.586 42.3098 150.987 42.2255 151.361 42.0621C151.734 41.8987 152.072 41.6594 152.353 41.3587C152.914 40.674 153.222 39.8073 153.222 38.9118C153.222 38.0163 152.914 37.1497 152.353 36.465C152.072 36.163 151.735 35.9226 151.361 35.7584C150.988 35.5942 150.586 35.5095 150.18 35.5095C149.773 35.5095 149.371 35.5942 148.998 35.7584C148.624 35.9226 148.287 36.163 148.007 36.465Z" fill="white"/>
<path d="M69.4394 0.0146484H52.8436V43.524H69.4394V0.0146484Z" fill="white"/>
<path d="M43.018 0.0146484H26.4222V39.611H43.018V0.0146484Z" fill="white"/>
<path d="M0 44.223V27.1873C7.01057 27.1783 13.731 24.3099 18.6851 19.2123C23.6393 14.1147 26.4219 7.20463 26.4219 0L43.0177 0C43.009 11.7234 38.4744 22.9643 30.4093 31.2553C22.3442 39.5464 11.4076 44.2102 0 44.223Z" fill="url(#paint0_linear)"/>
<path d="M26.4222 44.223V27.1873C33.4336 27.1796 40.1552 24.3118 45.1104 19.214C50.0655 14.1162 52.8489 7.20547 52.8488 0L69.4446 0C69.4346 11.7238 64.899 22.9647 56.8332 31.2556C48.7673 39.5465 37.8302 44.2102 26.4222 44.223Z" fill="url(#paint1_linear)"/>
<defs>
<linearGradient id="paint0_linear" x1="5.18707" y1="39.7225" x2="43.0959" y2="2.07876" gradientUnits="userSpaceOnUse">
<stop stop-color="#00EF12"/>
<stop offset="1" stop-color="#00FFE9"/>
</linearGradient>
<linearGradient id="paint1_linear" x1="1726.24" y1="4854.8" x2="5179.35" y2="1426.59" gradientUnits="userSpaceOnUse">
<stop stop-color="#00EF12"/>
<stop offset="1" stop-color="#00FFE9"/>
</linearGradient>
</defs>
</svg>
