<svg width="32" height="33" viewBox="0 0 32 33" fill="none" xmlns="http://www.w3.org/2000/svg">
<path d="M23.6016 21.5433C27.6591 19.3968 30.735 17.7611 31.0001 17.6339C31.8482 17.1994 32.7241 16.0492 31.0001 15.1558C30.4435 14.8748 27.4466 13.2901 23.6016 11.2464L18.2714 16.433L23.6016 21.5432V21.5433Z" fill="#FFD900"/>
<path d="M18.2714 16.433L1.29926 32.9141C1.69763 32.965 2.14738 32.8632 2.67763 32.5823C3.79088 31.9952 15.5924 25.7855 23.6016 21.5445L18.2714 16.433Z" fill="#F43249"/>
<path d="M18.2714 16.4332L23.6016 11.272C23.6016 11.272 3.87139 0.897379 2.67764 0.284952C2.22789 0.0282983 1.72389 -0.0479389 1.27289 0.0282983L18.2714 16.4332Z" fill="#00EE76"/>
<path d="M18.2714 16.433L1.27287 0.0281754C0.583 0.181854 0 0.76911 0 1.97012V30.9722C0 32.0714 0.451125 32.8632 1.29925 32.9395L18.2714 16.433Z" fill="#00D3FF"/>
</svg>
