<svg width="338" height="338" viewBox="0 0 338 338" fill="none" xmlns="http://www.w3.org/2000/svg">
<mask id="mask0" mask-type="alpha" maskUnits="userSpaceOnUse" x="0" y="0" width="338" height="338">
<rect width="338" height="338" fill="#D2E8D3"/>
</mask>
<g mask="url(#mask0)">
<rect width="338" height="338" fill="#D3E8D7"/>
<rect x="49" y="87" width="239.871" height="453.81" rx="5" fill="#323232"/>
<rect x="58.7245" y="116.174" width="220.422" height="411.67" rx="2" fill="url(#paint0_linear)"/>
<circle cx="168.935" cy="103.207" r="6.483" fill="url(#paint1_linear)"/>
<path opacity="0.74" d="M58.7245 118.174C58.7245 117.069 59.62 116.174 60.7245 116.174H277.147C278.251 116.174 279.146 117.069 279.146 118.174V161.555H58.7245V118.174Z" fill="#323232"/>
<circle cx="241.869" cy="140.485" r="11.3452" fill="white"/>
<rect x="81.4149" y="145.347" width="129.66" height="6.483" rx="3.2415" fill="white"/>
<rect x="143.003" y="132.381" width="68.0715" height="6.483" rx="3.2415" fill="white"/>
<rect opacity="0.74" x="68.9893" y="178.951" width="199.892" height="63.9656" rx="2" fill="#323232"/>
<rect x="82.3201" y="214.957" width="129.66" height="6.483" rx="3.2415" fill="white"/>
<rect x="82.3201" y="201.991" width="68.0715" height="6.483" rx="3.2415" fill="white"/>
<rect opacity="0.74" x="69.3201" y="254.991" width="199.892" height="63.9656" rx="2" fill="#323232"/>
<rect x="82.6508" y="290.998" width="129.66" height="6.483" rx="3.2415" fill="white"/>
<rect x="82.6508" y="278.032" width="68.0715" height="6.483" rx="3.2415" fill="white"/>
<rect width="338" height="338" fill="#C4C4C4" fill-opacity="0.6"/>
</g>
<defs>
<linearGradient id="paint0_linear" x1="58.7245" y1="323.32" x2="279.147" y2="323.32" gradientUnits="userSpaceOnUse">
<stop offset="0.213542" stop-color="#16FF00"/>
<stop offset="0.854167" stop-color="#4CFFC9"/>
</linearGradient>
<linearGradient id="paint1_linear" x1="162.452" y1="103.249" x2="175.418" y2="103.249" gradientUnits="userSpaceOnUse">
<stop offset="0.213542" stop-color="#16FF00"/>
<stop offset="0.854167" stop-color="#4CFFC9"/>
</linearGradient>
</defs>
</svg>
