<svg width="338" height="338" viewBox="0 0 338 338" fill="none" xmlns="http://www.w3.org/2000/svg">
<circle opacity="0.1" cx="169" cy="169" r="169" fill="url(#paint0_linear)"/>
<mask id="mask0" mask-type="alpha" maskUnits="userSpaceOnUse" x="0" y="0" width="338" height="338">
<circle cx="169" cy="169" r="169" fill="white"/>
</mask>
<g mask="url(#mask0)">
<rect x="121.68" y="111.009" width="239.871" height="453.81" rx="5" fill="#323232"/>
<rect x="131.404" y="140.182" width="220.422" height="411.67" rx="2" fill="url(#paint1_linear)"/>
<circle cx="241.615" cy="127.216" r="6.483" fill="url(#paint2_linear)"/>
<path opacity="0.74" d="M131.404 142.182C131.404 141.078 132.3 140.182 133.404 140.182H349.826C350.931 140.182 351.826 141.078 351.826 142.182V185.563H131.404V142.182Z" fill="#323232"/>
<circle cx="314.549" cy="164.493" r="11.3452" fill="white"/>
<rect x="154.095" y="169.356" width="129.66" height="6.483" rx="3.2415" fill="white"/>
<rect x="215.683" y="156.39" width="68.0715" height="6.483" rx="3.2415" fill="white"/>
<rect opacity="0.74" x="141.669" y="202.959" width="199.892" height="63.9656" rx="2" fill="#323232"/>
<path d="M168.431 221.463H166.738V225.323H165.07V216.163H166.738V219.997H168.484L171.102 216.163H172.9L169.786 220.599L173.018 225.323H171.102L168.431 221.463Z" fill="white"/>
<path d="M176.736 225.415C176.033 225.415 175.399 225.262 174.834 224.957C174.269 224.651 173.826 224.228 173.505 223.687C173.192 223.138 173.036 222.518 173.036 221.829C173.036 221.14 173.192 220.525 173.505 219.984C173.826 219.443 174.269 219.02 174.834 218.715C175.399 218.409 176.033 218.257 176.736 218.257C177.449 218.257 178.087 218.409 178.652 218.715C179.216 219.02 179.655 219.443 179.968 219.984C180.289 220.525 180.45 221.14 180.45 221.829C180.45 222.518 180.289 223.138 179.968 223.687C179.655 224.228 179.216 224.651 178.652 224.957C178.087 225.262 177.449 225.415 176.736 225.415ZM176.736 224.014C177.336 224.014 177.831 223.814 178.222 223.412C178.612 223.011 178.808 222.483 178.808 221.829C178.808 221.175 178.612 220.647 178.222 220.246C177.831 219.844 177.336 219.644 176.736 219.644C176.137 219.644 175.642 219.844 175.251 220.246C174.869 220.647 174.678 221.175 174.678 221.829C174.678 222.483 174.869 223.011 175.251 223.412C175.642 223.814 176.137 224.014 176.736 224.014Z" fill="white"/>
<path d="M188.651 218.335V224.263C188.651 226.723 187.4 227.953 184.899 227.953C184.23 227.953 183.596 227.866 182.997 227.692C182.397 227.526 181.902 227.282 181.511 226.959L182.241 225.729C182.545 225.982 182.927 226.182 183.387 226.331C183.857 226.488 184.33 226.566 184.808 226.566C185.572 226.566 186.132 226.392 186.488 226.043C186.845 225.694 187.023 225.162 187.023 224.446V224.08C186.745 224.385 186.406 224.616 186.006 224.773C185.607 224.93 185.168 225.009 184.69 225.009C184.03 225.009 183.431 224.869 182.892 224.59C182.363 224.302 181.941 223.901 181.629 223.386C181.325 222.872 181.173 222.283 181.173 221.62C181.173 220.957 181.325 220.372 181.629 219.866C181.941 219.351 182.363 218.954 182.892 218.675C183.431 218.396 184.03 218.257 184.69 218.257C185.194 218.257 185.65 218.339 186.058 218.505C186.475 218.671 186.823 218.924 187.101 219.264V218.335H188.651ZM184.938 223.622C185.555 223.622 186.058 223.439 186.449 223.072C186.849 222.697 187.049 222.213 187.049 221.62C187.049 221.035 186.849 220.56 186.449 220.193C186.058 219.827 185.555 219.644 184.938 219.644C184.313 219.644 183.8 219.827 183.401 220.193C183.01 220.56 182.814 221.035 182.814 221.62C182.814 222.213 183.01 222.697 183.401 223.072C183.8 223.439 184.313 223.622 184.938 223.622Z" fill="white"/>
<path d="M171.918 237.912V253.368H170.434V239.325H167.035V237.912H171.918Z" fill="white"/>
<path d="M190.604 251.954V253.368H180.489V252.241L186.484 245.949C187.239 245.154 187.747 244.469 188.008 243.895C188.283 243.306 188.42 242.718 188.42 242.129C188.42 241.216 188.125 240.51 187.534 240.009C186.957 239.494 186.126 239.236 185.041 239.236C183.352 239.236 182.041 239.81 181.107 240.959L180.056 239.987C180.619 239.28 181.333 238.736 182.198 238.353C183.077 237.97 184.066 237.779 185.165 237.779C186.635 237.779 187.795 238.154 188.647 238.905C189.512 239.641 189.945 240.657 189.945 241.952C189.945 242.747 189.78 243.512 189.45 244.248C189.12 244.984 188.496 245.831 187.575 246.788L182.672 251.954H190.604Z" fill="white"/>
<path d="M202.76 244.536C204.271 244.624 205.418 245.065 206.2 245.86C206.997 246.64 207.395 247.664 207.395 248.929C207.395 249.813 207.196 250.6 206.798 251.292C206.4 251.969 205.809 252.506 205.026 252.904C204.243 253.301 203.289 253.5 202.163 253.5C201.119 253.5 200.13 253.323 199.196 252.97C198.276 252.602 197.534 252.116 196.971 251.513L197.692 250.254C198.173 250.784 198.812 251.218 199.608 251.557C200.405 251.881 201.256 252.043 202.163 252.043C203.344 252.043 204.257 251.77 204.903 251.226C205.548 250.666 205.871 249.901 205.871 248.929C205.871 247.973 205.548 247.222 204.903 246.677C204.257 246.133 203.282 245.86 201.977 245.86H200.947V244.69L204.944 239.325H197.569V237.912H206.839V239.038L202.76 244.536Z" fill="white"/>
<path d="M227.135 249.305H224.251V253.368H222.767V249.305H214.63V248.157L222.273 237.912H223.921L216.546 247.892H222.809V244.315H224.251V247.892H227.135V249.305Z" fill="white"/>
<path d="M237.68 244.248C239.767 244.248 241.285 244.653 242.232 245.463C243.194 246.258 243.675 247.376 243.675 248.819C243.675 249.717 243.475 250.519 243.077 251.226C242.693 251.932 242.109 252.492 241.326 252.904C240.543 253.301 239.582 253.5 238.442 253.5C237.412 253.5 236.43 253.323 235.496 252.97C234.576 252.602 233.834 252.116 233.271 251.513L233.992 250.254C234.473 250.784 235.104 251.218 235.887 251.557C236.67 251.881 237.515 252.043 238.421 252.043C239.616 252.043 240.536 251.756 241.182 251.182C241.841 250.608 242.171 249.842 242.171 248.885C242.171 247.825 241.8 247.023 241.058 246.479C240.33 245.934 239.094 245.662 237.35 245.662H234.28L235.022 237.912H242.912V239.325H236.32L235.826 244.248H237.68Z" fill="white"/>
</g>
<defs>
<linearGradient id="paint0_linear" x1="1.1773e-06" y1="170.076" x2="338" y2="170.076" gradientUnits="userSpaceOnUse">
<stop stop-color="#16FF00"/>
<stop offset="0.78125" stop-color="#4CFFC9"/>
</linearGradient>
<linearGradient id="paint1_linear" x1="131.404" y1="347.329" x2="351.826" y2="347.329" gradientUnits="userSpaceOnUse">
<stop offset="0.213542" stop-color="#16FF00"/>
<stop offset="0.854167" stop-color="#4CFFC9"/>
</linearGradient>
<linearGradient id="paint2_linear" x1="235.132" y1="127.257" x2="248.098" y2="127.257" gradientUnits="userSpaceOnUse">
<stop offset="0.213542" stop-color="#16FF00"/>
<stop offset="0.854167" stop-color="#4CFFC9"/>
</linearGradient>
</defs>
</svg>
